<svg xmlns="http://www.w3.org/2000/svg" width="320" height="80" viewBox="0 0 320 80" role="img" aria-labelledby="title">
  <title id="title">Logo DupontCare</title>

  <!-- Icône dent blanche -->
  <path d="M40 12
           c-3.5-4.2-8.2-6.4-13-6.4
           s-9.5 2.2-13 6.4
           c-2.7 3.3-4 7.3-4 11.2
           c0 7.3 2.7 14 5.3 19.9
           c2 4.7 3.3 8.6 5.3 13.2
           c1.6 3.9 4.1 8.5 6.7 8.5
           s5.1-4.6 6.7-8.5
           c2-4.6 3.3-8.5 5.3-13.2
           c2.6-5.9 5.3-12.6 5.3-19.9
           c0-3.9-1.3-7.8-4-11.2z"
        fill="none" stroke="#ffffff" stroke-width="3"
        stroke-linecap="round" stroke-linejoin="round"
        transform="translate(10,6)"/>

  <!-- Texte -->
  <g font-family="Montserrat, Arial, Helvetica, sans-serif" font-weight="700">
    <text x="92" y="50" font-size="34" fill="#ffffff" letter-spacing="0.2">Dupont</text>
    <text x="210" y="50" font-size="34" fill="#00A0FF" letter-spacing="0.2">Care</text>
  </g>
</svg>
